<?xml version="1.0" encoding="UTF-8"?>
<svg xmlns="http://www.w3.org/2000/svg" xmlns:xlink="http://www.w3.org/1999/xlink" viewBox="0 0 64 64" width="64px" height="64px">
<g id="surface91226419">
<path style=" stroke:none;fill-rule:nonzero;fill:rgb(100%,100%,100%);fill-opacity:1;" d="M 59.625 13.738281 C 59.230469 13.332031 58.625 13.21875 58.109375 13.453125 L 57.890625 13.554688 C 57.707031 13.640625 57.519531 13.726562 57.335938 13.808594 C 57.878906 12.945312 58.308594 12.019531 58.605469 11.0625 C 58.769531 10.535156 58.589844 9.957031 58.152344 9.613281 C 57.714844 9.273438 57.113281 9.238281 56.640625 9.527344 C 55.117188 10.449219 53.65625 11.117188 52.148438 11.578125 C 49.867188 9.367188 46.761719 8 43.332031 8 C 36.335938 8 30.667969 13.671875 30.667969 20.667969 C 30.667969 20.671875 30.667969 20.9375 30.667969 21.332031 L 29.335938 21.226562 C 16.371094 19.691406 12.679688 10.972656 12.527344 10.597656 C 12.277344 9.96875 11.730469 9.511719 11.070312 9.375 C 10.414062 9.234375 9.730469 9.441406 9.253906 9.917969 C 8.988281 10.183594 6.667969 12.640625 6.667969 17.332031 C 6.667969 20.675781 8.15625 23.390625 10.085938 25.5 C 9.1875 24.949219 8.664062 24.507812 8.652344 24.496094 C 8.035156 23.957031 7.15625 23.847656 6.425781 24.21875 C 5.699219 24.589844 5.269531 25.367188 5.339844 26.179688 C 5.367188 26.460938 5.933594 31.796875 12.097656 35.828125 L 10.976562 36.03125 C 10.292969 36.15625 9.722656 36.625 9.46875 37.269531 C 9.21875 37.914062 9.316406 38.644531 9.734375 39.199219 C 9.875 39.386719 12.476562 42.773438 18.132812 44.71875 C 15.113281 45.726562 10.960938 46.667969 6 46.667969 C 5.214844 46.667969 4.503906 47.125 4.179688 47.839844 C 3.851562 48.554688 3.976562 49.394531 4.496094 49.984375 C 4.710938 50.230469 9.914062 56 23.332031 56 C 45.617188 56 56 35.3125 56 21.332031 L 56 20.667969 C 56 20.46875 55.980469 20.277344 55.96875 20.082031 C 58.761719 17.386719 59.808594 15.363281 59.859375 15.261719 C 60.113281 14.757812 60.019531 14.144531 59.625 13.738281 Z M 59.625 13.738281 "/>
</g>
</svg>
