<?xml version="1.0" encoding="UTF-8"?>
<svg xmlns="http://www.w3.org/2000/svg" xmlns:xlink="http://www.w3.org/1999/xlink" viewBox="0 0 60 60" width="60px" height="60px">
<g id="surface93725034">
<path style=" stroke:none;fill-rule:nonzero;fill:rgb(100%,100%,100%);fill-opacity:1;" d="M 50.75 13.210938 C 50.726562 13.1875 50.6875 13.164062 50.648438 13.125 C 47.664062 10.726562 43.664062 9.5 40.835938 8.914062 C 38.050781 8.324219 35.261719 9.914062 34.363281 12.601562 C 34.351562 12.648438 34.324219 12.6875 34.3125 12.738281 C 39 13.210938 43.1875 14.5 46.585938 16.511719 C 47.476562 17.039062 47.761719 18.1875 47.238281 19.085938 C 46.886719 19.675781 46.261719 20 45.625 20 C 45.300781 20 44.960938 19.914062 44.664062 19.738281 C 40.835938 17.460938 35.761719 16.261719 30 16.261719 C 24.238281 16.261719 19.164062 17.460938 15.335938 19.738281 C 14.4375 20.261719 13.289062 19.976562 12.761719 19.085938 C 12.238281 18.1875 12.523438 17.039062 13.414062 16.511719 C 16.8125 14.5 21 13.210938 25.6875 12.738281 C 25.675781 12.6875 25.648438 12.648438 25.636719 12.601562 C 24.738281 9.914062 21.949219 8.324219 19.164062 8.914062 C 16.335938 9.5 12.335938 10.726562 9.351562 13.125 C 9.3125 13.164062 9.273438 13.1875 9.25 13.210938 C 6.476562 15.789062 1.351562 28.886719 1.351562 40.789062 C 1.351562 41.113281 1.425781 41.425781 1.585938 41.710938 C 4.636719 47.074219 11.824219 49.039062 14.789062 49.625 C 15.148438 49.699219 15.511719 49.738281 15.875 49.738281 C 17.648438 49.738281 19.363281 48.886719 20.425781 47.414062 L 21.074219 46.523438 C 14.636719 45 11.335938 42.25 11.148438 42.085938 C 10.363281 41.414062 10.261719 40.238281 10.9375 39.449219 C 11.613281 38.664062 12.789062 38.5625 13.574219 39.226562 C 13.675781 39.3125 19.1875 43.773438 30 43.773438 C 40.863281 43.773438 46.375 39.273438 46.425781 39.226562 C 47.210938 38.5625 48.398438 38.664062 49.0625 39.460938 C 49.726562 40.25 49.636719 41.425781 48.851562 42.085938 C 48.664062 42.25 45.363281 45 38.925781 46.523438 L 39.574219 47.414062 C 40.636719 48.886719 42.351562 49.738281 44.125 49.738281 C 44.488281 49.738281 44.851562 49.699219 45.210938 49.625 C 48.175781 49.039062 55.363281 47.074219 58.414062 41.710938 C 58.574219 41.425781 58.648438 41.113281 58.648438 40.789062 C 58.648438 28.886719 53.523438 15.789062 50.75 13.210938 Z M 21.914062 37.398438 C 19.523438 37.398438 17.585938 35.1875 17.585938 32.449219 C 17.585938 29.710938 19.523438 27.5 21.914062 27.5 C 24.3125 27.5 26.25 29.710938 26.25 32.449219 C 26.25 35.1875 24.3125 37.398438 21.914062 37.398438 Z M 38.050781 37.5 C 35.636719 37.5 33.675781 35.261719 33.675781 32.5 C 33.675781 29.738281 35.636719 27.5 38.050781 27.5 C 40.476562 27.5 42.425781 29.738281 42.425781 32.5 C 42.425781 35.261719 40.476562 37.5 38.050781 37.5 Z M 38.050781 37.5 "/>
</g>
</svg>
