<?xml version="1.0" encoding="UTF-8"?>
<svg xmlns="http://www.w3.org/2000/svg" xmlns:xlink="http://www.w3.org/1999/xlink" viewBox="0 0 48 48" width="48px" height="48px">
<g id="surface125209706">
<path style=" stroke:none;fill-rule:nonzero;fill:rgb(100%,100%,100%);fill-opacity:1;" d="M 26.980469 4 C 26.277344 4.007812 25.675781 4.503906 25.53125 5.191406 L 23.273438 16.027344 C 18.375 16.164062 13.949219 17.652344 10.683594 20.019531 C 9.785156 19.378906 8.6875 19 7.5 19 C 4.460938 19 2 21.460938 2 24.5 C 2 26.652344 3.238281 28.511719 5.039062 29.414062 C 5.027344 29.609375 5 29.800781 5 30 C 5 37.730469 13.507812 44 24 44 C 34.492188 44 43 37.730469 43 30 C 43 29.800781 42.972656 29.609375 42.960938 29.414062 C 44.761719 28.511719 46 26.652344 46 24.5 C 46 21.460938 43.539062 19 40.5 19 C 39.3125 19 38.214844 19.378906 37.316406 20.019531 C 34.40625 17.914062 30.582031 16.5 26.320312 16.113281 L 28.167969 7.25 L 34.128906 8.382812 C 34.523438 9.886719 35.878906 11 37.5 11 C 39.429688 11 41 9.429688 41 7.5 C 41 5.570312 39.429688 4 37.5 4 C 36.34375 4 35.324219 4.570312 34.6875 5.4375 L 27.28125 4.027344 C 27.183594 4.007812 27.082031 4 26.984375 4 Z M 16.5 24 C 18.433594 24 20 25.566406 20 27.5 C 20 29.433594 18.433594 31 16.5 31 C 14.566406 31 13 29.433594 13 27.5 C 13 25.566406 14.566406 24 16.5 24 Z M 31.5 24 C 33.433594 24 35 25.566406 35 27.5 C 35 29.433594 33.433594 31 31.5 31 C 29.566406 31 28 29.433594 28 27.5 C 28 25.566406 29.566406 24 31.5 24 Z M 17.5 34 C 17.882812 34 18.265625 34.144531 18.558594 34.4375 C 18.613281 34.488281 20.261719 36 23.996094 36 C 27.769531 36 29.421875 34.457031 29.4375 34.4375 C 30.023438 33.851562 30.972656 33.851562 31.558594 34.4375 C 32.144531 35.027344 32.144531 35.976562 31.5625 36.5625 C 31.3125 36.8125 28.976562 39 24 39 C 19.023438 39 16.6875 36.8125 16.4375 36.5625 C 15.851562 35.976562 15.851562 35.027344 16.4375 34.441406 C 16.734375 34.144531 17.117188 34 17.5 34 Z M 17.5 34 "/>
</g>
</svg>
