<?xml version="1.0" encoding="UTF-8"?>
<svg xmlns="http://www.w3.org/2000/svg" xmlns:xlink="http://www.w3.org/1999/xlink" viewBox="0 0 50 50" width="50px" height="50px">
<g id="surface125199978">
<path style=" stroke:none;fill-rule:nonzero;fill:rgb(100%,100%,100%);fill-opacity:1;" d="M 24.851562 8.855469 C 18.234375 8.855469 12.085938 9.324219 8.578125 10.058594 C 8.570312 10.0625 8.5625 10.0625 8.554688 10.066406 C 5.910156 10.65625 3.421875 12.550781 2.898438 15.515625 C 2.898438 15.519531 2.898438 15.523438 2.898438 15.527344 C 2.496094 17.917969 2.082031 21.03125 2.082031 25.519531 C 2.082031 30 2.496094 33.035156 3.003906 35.550781 C 3.542969 38.425781 5.972656 40.375 8.65625 40.976562 C 8.667969 40.980469 8.683594 40.984375 8.695312 40.988281 C 12.355469 41.707031 18.332031 42.1875 24.949219 42.1875 C 31.566406 42.1875 37.542969 41.707031 41.207031 40.988281 C 41.21875 40.984375 41.234375 40.980469 41.246094 40.976562 C 43.886719 40.382812 46.378906 38.492188 46.902344 35.527344 C 46.902344 35.519531 46.902344 35.511719 46.90625 35.503906 C 47.300781 33.066406 47.816406 29.953125 47.917969 25.457031 C 47.917969 25.445312 47.917969 25.433594 47.917969 25.421875 C 47.917969 20.925781 47.402344 17.789062 46.898438 15.308594 C 46.367188 12.425781 43.933594 10.46875 41.246094 9.867188 C 41.203125 9.859375 41.164062 9.851562 41.121094 9.84375 C 37.546875 9.34375 31.46875 8.855469 24.851562 8.855469 Z M 20.996094 17.710938 C 21.382812 17.703125 21.78125 17.792969 22.15625 18.003906 L 31.117188 23.070312 C 32.628906 23.921875 32.628906 26.078125 31.117188 26.933594 L 22.15625 31.996094 C 20.65625 32.84375 18.789062 31.769531 18.789062 30.0625 L 18.789062 19.9375 C 18.789062 18.65625 19.839844 17.734375 20.996094 17.710938 Z M 20.996094 17.710938 "/>
</g>
</svg>
